HIERARCHY
ROOT ui
{
	 OFFSET 0 0 0
	 CHANNELS 3 XPosition YPosition Z Position
	 EndSite
	 {
	 OFFSET 0 -1 0
	 }
}
ROOT li
{
	 OFFSET 0 0 0
	 CHANNELS 3 XPosition YPosition Z Position
	 EndSite
	 {
	 OFFSET 0 -1 0
	 }
}
ROOT ul
{
	 OFFSET 0 0 0
	 CHANNELS 3 XPosition YPosition Z Position
	 EndSite
	 {
	 OFFSET 0 -1 0
	 }
}
ROOT ll
{
	 OFFSET 0 0 0
	 CHANNELS 3 XPosition YPosition Z Position
	 EndSite
	 {
	 OFFSET 0 -1 0
	 }
}
ROOT tt
{
	 OFFSET 0 0 0
	 CHANNELS 3 XPosition YPosition Z Position
	 EndSite
	 {
	 OFFSET 0 -1 0
	 }
}
ROOT tb
{
	 OFFSET 0 0 0
	 CHANNELS 3 XPosition YPosition Z Position
	 EndSite
	 {
	 OFFSET 0 -1 0
	 }
}
ROOT td
{
	 OFFSET 0 0 0
	 CHANNELS 3 XPosition YPosition Z Position
	 EndSite
	 {
	 OFFSET 0 -1 0
	 }
}
ROOT v
{
	 OFFSET 0 0 0
	 CHANNELS 3 XPosition YPosition Z Position
	 EndSite
	 {
	 OFFSET 0 -1 0
	 }
}
ROOT bn
{
	 OFFSET 0 0 0
	 CHANNELS 3 XPosition YPosition Z Position
	 EndSite
	 {
	 OFFSET 0 -1 0
	 }
}
MOTION
Frames: 24
Frame Time: 0.002
-0.0018005239963531493	4.3968498706817625E-4	0		0.47796417236328126	-2.371180419921875	0		-1.10649609375	-0.017243560791015626	0		-0.7463877563476562	-2.416128173828125	0		1.4382655029296876	-0.5367100830078125	0		3.1126630859375	0.20310441589355469	0		4.62647509765625	0.3084330749511719	0		5.6197294921875	0.21607901000976562	0		-0.32157220458984376	5.94733203125	0		
-0.04904425048828125	0.0025425329208374025	0		0.4547308654785156	-2.368629150390625	0		-1.104775634765625	-0.017260852813720702	0		-0.6732197875976562	-2.440790771484375	0		1.4310556640625	-0.5335285034179688	0		3.118497802734375	0.20798309326171874	0		4.6281962890625	0.30840081787109375	0		5.617990234375	0.204071044921875	0		-0.3330849609375	5.93661328125	0		
0.006485795021057129	-0.004712354183197021	0		0.47928500366210935	-2.374175048828125	0		-1.1030938720703125	-0.01727613639831543	0		-0.7085584106445313	-2.440958740234375	0		1.4385738525390626	-0.5406869506835937	0		3.1358779296875	0.19459193420410156	0		4.63953271484375	0.293143310546875	0		5.62215625	0.21595901489257813	0		-0.31813687133789065	5.947294921875	0		
-0.021763910293579103	9.577249884605408E-4	0		0.4341466064453125	-2.3631181640625	0		-1.09737548828125	-0.013381765365600587	0		-0.7089840087890625	-2.442926513671875	0		1.449128662109375	-0.543913818359375	0		3.130966796875	0.2147203369140625	0		4.640482421875	0.3071307373046875	0		5.62628369140625	0.22784710693359375	0		-0.31553558349609373	5.9452568359375	0		
0.010927619934082032	0.006231338024139404	0		0.4626929931640625	-2.3637529296875	0		-1.0927454833984376	-0.010461299896240235	0		-0.7325847778320312	-2.44936279296875	0		1.4451719970703125	-0.5228009033203125	0		3.142182861328125	0.1994696350097656	0		4.63720751953125	0.3142127685546875	0		5.6273974609375	0.22778831481933592	0		-0.313951904296875	5.945244140625	0		
-0.006672560214996338	0.0026570630073547365	0		0.4610563049316406	-2.368695556640625	0		-1.098417724609375	-0.017305688858032228	0		-0.670468017578125	-2.465766357421875	0		1.443244384765625	-0.5407442016601562	0		3.156942138671875	0.211144775390625	0		4.6393740234375	0.3001640930175781	0		5.631908203125	0.2154261932373047	0		-0.313395751953125	5.9472568359375	0		
-0.017313167572021483	9.241480231285095E-4	0		0.45265750122070314	-2.359479248046875	0		-1.097015625	-0.017309814453125	0		-0.7440795288085937	-2.46505126953125	0		1.438806396484375	-0.5336232299804687	0		3.122148193359375	0.202950927734375	0		4.63596240234375	0.308248291015625	0		5.626490234375	0.21572773742675783	0		-0.3119684753417969	5.94724951171875	0		
-0.010119197845458984	-0.004219728946685791	0		0.4367780456542969	-2.3670966796875	0		-1.0957054443359375	-0.017312461853027344	0		-0.6384276123046875	-2.494457763671875	0		1.437046142578125	-0.5365676879882812	0		3.118621337890625	0.2100421600341797	0		4.63625146484375	0.30724301147460936	0		5.6274248046875	0.21567158508300782	0		-0.3096775512695312	5.945220703125	0		
-0.008905503273010254	-0.00422724723815918	0		0.4508623352050781	-2.372403564453125	0		-1.1475467529296874	-0.019097597122192382	0		-0.7323154907226562	-2.497280517578125	0		1.4530009765625	-0.5479234619140625	0		3.15173583984375	0.20528636169433595	0		4.64641845703125	0.30500738525390625	0		5.63833837890625	0.22197537231445313	0		-0.3074587707519531	5.94419189453125	0		
0.001436758041381836	0.005555324077606201	0		0.47121310424804685	-2.36185302734375	0		-1.0653153076171875	-0.014961162567138671	0		-0.63149169921875	-2.510577880859375	0		1.457204345703125	-0.5440088500976562	0		3.139062255859375	0.21458143615722655	0		4.64374267578125	0.3140654296875	0		5.6320517578125	0.22749916076660157	0		-0.30729083251953127	5.9452080078125	0		
-0.00677429723739624	-0.004244606018066407	0		0.4411332702636719	-2.36515185546875	0		-1.081111083984375	-0.006576583862304687	0		-0.6767290649414063	-2.520524658203125	0		1.4403831787109376	-0.5366141967773438	0		3.126807373046875	0.20285752868652343	0		4.64476025390625	0.3140320129394531	0		5.62981005859375	0.2154854736328125	0		-0.30624368286132814	5.9452001953125	0		
-0.005856291770935058	-0.0042549481391906735	0		0.4908417663574219	-2.374287841796875	0		-1.084283935546875	-0.01048816204071045	0		-0.6500842895507812	-2.532125732421875	0		1.4412982177734375	-0.5366324462890625	0		3.1277265625	0.2028301544189453	0		4.64322119140625	0.2940475769042969	0		5.63046435546875	0.2154155731201172	0		-0.30624713134765624	5.9472138671875	0		
-0.03488827133178711	0.002421308994293213	0		0.44284735107421874	-2.365178466796875	0		-1.072510498046875	-0.012745576858520508	0		-0.65750390625	-2.541947021484375	0		1.444864013671875	-0.5477179565429687	0		3.13266357421875	0.20770787048339845	0		4.63652978515625	0.31518817138671873	0		5.6381318359375	0.20975575256347656	0		-0.30443740844726563	5.94518212890625	0		
0.01969139289855957	-0.004829459190368653	0		0.48907052612304686	-2.387244140625	0		-1.061827392578125	-0.014980242729187012	0		-0.685055419921875	-2.55330810546875	0		1.454521240234375	-0.5509442138671875	0		3.13841845703125	0.20856259155273438	0		4.64723779296875	0.31391970825195314	0		5.63453857421875	0.22721319580078125	0		-0.30367068481445314	5.945171875	0		
0.002505985975265503	0.002571295976638794	0		0.4483136901855469	-2.3602998046875	0		-1.053019775390625	-0.008170514106750489	0		-0.6545908203125	-2.561002685546875	0		1.449329345703125	-0.5438279418945312	0		3.134046875	0.20764768981933593	0		4.647888671875	0.31388043212890626	0		5.6350009765625	0.22713597106933595	0		-0.30298556518554687	5.9451630859375	0		
0.01603047752380371	2.6387101411819456E-4	0		0.49563043212890623	-2.3713896484375	0		-1.060604736328125	-0.014987181663513184	0		-0.664283203125	-2.57177490234375	0		1.4468087158203125	-0.5477760620117188	0		3.162591796875	0.20597547912597655	0		4.64432763671875	0.3079357604980469	0		5.632443359375	0.21511256408691407	0		-0.30237435913085936	5.94515576171875	0		
-0.0025748341083526613	-0.004303751945495605	0		0.44420254516601565	-2.367203369140625	0		-1.07284375	-0.0036900739669799803	0		-0.66123291015625	-2.59084033203125	0		1.456284423828125	-0.5489979248046875	0		3.126176513671875	0.20979940795898439	0		4.644833984375	0.30789999389648437	0		5.6328017578125	0.2150408477783203	0		-0.30278509521484376	5.94717431640625	0		
0.01697429656982422	2.5679999589920045E-4	0		0.49447482299804685	-2.37435595703125	0		-1.0596611328125	-0.014980195999145508	0		-0.6582487182617187	-2.609901123046875	0		1.4484229736328125	-0.5618211669921875	0		3.13073095703125	0.21468435668945313	0		4.63943798828125	0.31500445556640627	0		5.63608251953125	0.22692344665527345	0		-0.3013529052734375	5.94515283203125	0		
-0.028545454025268556	0.005319508075714111	0		0.45582220458984374	-2.374456298828125	0		-1.114132568359375	-0.007703684806823731	0		-0.66095849609375	-2.6128212890625	0		1.457723876953125	-0.5650317993164062	0		3.16200830078125	0.2099564208984375	0		4.648767578125	0.3127720642089844	0		5.64752880859375	0.20201791381835937	0		-0.29802978515625	5.94109228515625	0		
0.03763674545288086	-0.0011846619844436647	0		0.48515911865234373	-2.373114013671875	0		-1.1165869140625	0.0023837699890136717	0		-0.652962890625	-2.625984130859375	0		1.4552657470703125	-0.5549618530273438	0		3.131424560546875	0.21466087341308593	0		4.650107421875	0.3137306518554687	0		5.63657421875	0.22682666015625	0		-0.30058175659179687	5.94517578125	0		
-0.003982336044311524	0.004803544044494629	0		0.47044757080078126	-2.370749755859375	0		-1.0464659423828124	-0.004196207046508789	0		-0.6408674926757812	-2.632231689453125	0		1.44935693359375	-0.5618090209960938	0		3.127566650390625	0.209755615234375	0		4.64622705078125	0.30781524658203124	0		5.63378857421875	0.21485299682617187	0		-0.300286376953125	5.94520068359375	0		
-0.006879467010498047	9.064270257949829E-4	0		0.49554971313476565	-2.374295166015625	0		-1.046271728515625	-0.004156318187713623	0		-0.6828184814453125	-2.6372255859375	0		1.4464559326171875	-0.5657161254882812	0		3.127762451171875	0.20976683044433594	0		4.632611328125	0.3161363525390625	0		5.63392626953125	0.2148438720703125	0		-0.3000513610839844	5.9452353515625	0		
-0.02583405113220215	-0.0026119210720062258	0		0.4686961975097656	-2.372634033203125	0		-1.1200965576171875	-0.001401777982711792	0		-0.635430908203125	-2.669275634765625	0		1.4524217529296874	-0.572819580078125	0		3.132733642578125	0.20267489624023438	0		4.637560546875	0.3080343933105469	0		5.6340205078125	0.2148524627685547	0		-0.29987814331054685	5.9452802734375	0		
-0.006675168991088867	0.0010022280216217042	0		0.4556631774902344	-2.37628369140625	0		-1.1090738525390624	-0.003594274044036865	0		-0.6723904418945312	-2.669365478515625	0		1.4524896240234375	-0.5727765502929687	0		3.123132080078125	0.21693333435058593	0		4.63695703125	0.32207522583007814	0		5.64002197265625	0.24050341796875	0		-0.29976617431640623	5.9453349609375	0		
